<svg xmlns="http://www.w3.org/2000/svg" xmlns:xlink="http://www.w3.org/1999/xlink" version="1.1" x="0px" y="0px" viewBox="910 550 100 125" enable-background="new 910 550 100 100" xml:space="preserve">
<g fill="white">
<path d="M982.383,598.587c0.032,0,0.064-0.002,0.098-0.007c0.389-0.053,0.662-0.412,0.608-0.802   c-0.151-1.104-0.385-2.208-0.694-3.281c-0.109-0.378-0.503-0.595-0.881-0.487c-0.378,0.109-0.596,0.504-0.487,0.882   c0.291,1.007,0.51,2.042,0.651,3.079C981.728,598.328,982.032,598.587,982.383,598.587z"/>
<path d="M982.564,599.615c-0.394,0.01-0.703,0.337-0.693,0.73c0.154,5.887-2.111,11.674-6.217,15.877   c-0.275,0.281-0.27,0.732,0.012,1.007c0.138,0.136,0.317,0.203,0.497,0.203c0.185,0,0.37-0.072,0.509-0.215   c4.373-4.477,6.787-10.641,6.622-16.91C983.284,599.915,982.955,599.604,982.564,599.615z"/>
<path d="M974.078,617.684c-1.248,1.047-2.623,1.96-4.087,2.711c-3.753,1.927-7.944,2.727-12.122,2.314   c-4.07-0.402-7.935-1.926-11.176-4.405c-0.312-0.239-0.759-0.179-0.998,0.133c-0.239,0.312-0.179,0.76,0.133,0.998   c3.451,2.641,7.566,4.263,11.9,4.691c0.763,0.075,1.525,0.112,2.286,0.112c3.68,0,7.315-0.876,10.626-2.576   c1.559-0.801,3.022-1.772,4.353-2.888c0.301-0.253,0.34-0.702,0.088-1.003C974.829,617.471,974.38,617.431,974.078,617.684z"/>
<path d="M943.041,614.759c-0.248-0.305-0.696-0.351-1.001-0.103s-0.351,0.696-0.103,1.001c0.577,0.71,1.203,1.392,1.86,2.028   c0.139,0.133,0.317,0.2,0.495,0.2c0.186,0,0.372-0.073,0.512-0.217c0.273-0.283,0.266-0.733-0.017-1.007   C944.169,616.065,943.582,615.425,943.041,614.759z"/>
<path d="M935.748,597.583c0.041,0.007,0.08,0.01,0.12,0.01c0.341,0,0.642-0.246,0.701-0.593c0.053-0.317,0.114-0.636,0.18-0.948   c0.082-0.384-0.165-0.762-0.549-0.843s-0.763,0.165-0.844,0.55c-0.07,0.331-0.134,0.668-0.19,1.004   C935.1,597.15,935.36,597.518,935.748,597.583z"/>
<path d="M936.412,594.388c0.07,0.021,0.14,0.032,0.21,0.032c0.304,0,0.586-0.197,0.68-0.502c0.216-0.701,0.468-1.399,0.747-2.075   c1.261-3.052,3.204-5.875,5.618-8.162c0.286-0.271,0.298-0.721,0.027-1.006s-0.721-0.297-1.006-0.027   c-2.559,2.425-4.618,5.417-5.955,8.652c-0.296,0.716-0.562,1.456-0.792,2.199C935.825,593.874,936.036,594.272,936.412,594.388z"/>
<path d="M945.674,581.809c0.144,0,0.29-0.043,0.416-0.134c2.76-1.989,5.987-3.39,9.331-4.051c3.699-0.731,7.583-0.554,11.232,0.512   c2.253,0.658,4.393,1.643,6.358,2.928c0.329,0.215,0.771,0.123,0.985-0.206s0.122-0.771-0.207-0.985   c-2.083-1.362-4.35-2.406-6.737-3.104c-3.868-1.129-7.985-1.317-11.908-0.541c-3.543,0.7-6.962,2.185-9.887,4.292   c-0.319,0.23-0.391,0.675-0.162,0.994C945.234,581.707,945.452,581.809,945.674,581.809z"/>
<path d="M999.94,580.479c-0.15-0.344-0.542-0.513-0.895-0.385l-12.515,4.527c-1.537,0.556-3.146,0.838-4.783,0.838   c-3.038,0-5.951-0.954-8.424-2.759c-3.845-2.805-8.583-4.35-13.343-4.35c-3.553,0-7.113,0.864-10.295,2.498   c-7.639,3.922-12.34,11.696-12.27,20.29c0.039,4.757-2.255,9.188-6.135,11.852l-10.972,7.531c-0.31,0.213-0.401,0.629-0.208,0.951   c0.192,0.323,0.603,0.44,0.937,0.27l20.649-10.603c3.704,6.658,10.663,10.765,18.331,10.765c3.346,0,6.562-0.78,9.559-2.318   c4.981-2.558,8.668-6.902,10.382-12.233c1.642-5.105,1.285-10.529-0.993-15.353l20.648-10.602   C999.947,581.226,1000.091,580.824,999.94,580.479z M977.69,591.053c-0.168,0.086-0.294,0.235-0.353,0.415   c-0.058,0.18-0.041,0.375,0.045,0.543c2.384,4.643,2.816,9.937,1.219,14.905c-1.597,4.97-5.034,9.02-9.677,11.402   c-2.793,1.435-5.79,2.162-8.908,2.162c-7.369,0-14.036-4.069-17.399-10.619c-0.126-0.246-0.375-0.387-0.634-0.387   c-0.109,0-0.22,0.025-0.325,0.078l-11.326,5.815l1.755-1.204c4.271-2.933,6.796-7.807,6.753-13.038   c-0.066-8.051,4.339-15.336,11.497-19.011c3.024-1.553,6.27-2.34,9.645-2.34c4.46,0,8.9,1.448,12.504,4.077   c2.718,1.984,5.921,3.033,9.263,3.033c1.802,0,3.574-0.311,5.268-0.923l2.002-0.725L977.69,591.053z"/>
<path d="M971.525,597.24c-0.381,0.099-0.61,0.486-0.512,0.867c0.401,1.555,0.467,3.148,0.196,4.738   c-0.065,0.388,0.195,0.756,0.582,0.821c0.041,0.007,0.081,0.011,0.121,0.011c0.341,0,0.642-0.246,0.7-0.593   c0.305-1.789,0.23-3.583-0.221-5.333C972.294,597.371,971.905,597.143,971.525,597.24z"/>
<path d="M970.217,607.438c-0.318-0.229-0.764-0.157-0.993,0.162c-0.273,0.379-0.572,0.745-0.89,1.088   c-0.268,0.288-0.251,0.738,0.037,1.006c0.137,0.127,0.311,0.189,0.484,0.189c0.19,0,0.382-0.076,0.521-0.228   c0.357-0.385,0.695-0.797,1.002-1.225C970.608,608.111,970.536,607.667,970.217,607.438z"/>
<path d="M965.186,611.069c-2.295,1.179-4.843,1.541-7.37,1.049c-0.386-0.076-0.76,0.177-0.835,0.562   c-0.075,0.386,0.177,0.76,0.563,0.835c0.824,0.16,1.65,0.24,2.472,0.24c2.01,0,3.988-0.479,5.821-1.42   c0.35-0.18,0.488-0.608,0.309-0.959C965.965,611.027,965.535,610.89,965.186,611.069z"/>
<path d="M953.507,610.305c-0.59-0.407-1.143-0.873-1.645-1.384c-0.275-0.28-0.727-0.284-1.007-0.009   c-0.281,0.275-0.285,0.726-0.009,1.007c0.564,0.575,1.188,1.099,1.852,1.558c0.124,0.085,0.265,0.126,0.404,0.126   c0.226,0,0.448-0.107,0.586-0.308C953.912,610.972,953.831,610.528,953.507,610.305z"/>
<path d="M970.11,589.977c0.027-0.236-0.064-0.47-0.246-0.624c-2.754-2.344-6.265-3.636-9.884-3.636   c-2.426,0-4.758,0.566-6.932,1.682c-5.502,2.825-8.725,8.636-8.211,14.805c0.02,0.236,0.156,0.447,0.364,0.563   c0.107,0.059,0.226,0.089,0.345,0.089c0.111,0,0.223-0.026,0.325-0.078l23.856-12.249   C969.939,590.419,970.083,590.213,970.11,589.977z M946.208,601.004c-0.03-5.181,2.827-9.944,7.491-12.339   c1.97-1.011,4.083-1.524,6.281-1.524c2.92,0,5.761,0.927,8.11,2.627L946.208,601.004z"/>
<path d="M943.139,603.051c0.02,0,0.04-0.001,0.06-0.003c0.392-0.032,0.683-0.376,0.65-0.769c-0.144-1.727-0.01-3.46,0.397-5.151   c0.092-0.382-0.143-0.767-0.525-0.859c-0.382-0.092-0.767,0.143-0.859,0.525c-0.443,1.839-0.589,3.725-0.432,5.604   C942.461,602.77,942.772,603.051,943.139,603.051z"/>
<path d="M944.107,595.085c0.089,0.037,0.182,0.054,0.272,0.054c0.279,0,0.544-0.165,0.658-0.439   c1.467-3.538,4.154-6.451,7.566-8.203c4.034-2.071,8.607-2.368,12.878-0.836c0.37,0.133,0.778-0.06,0.91-0.43   c0.133-0.37-0.06-0.778-0.43-0.911c-4.579-1.642-9.685-1.31-14.009,0.91c-3.711,1.906-6.635,5.075-8.23,8.924   C943.571,594.518,943.744,594.934,944.107,595.085z"/>
<path d="M967.375,586.479c1.131,0.575,2.191,1.282,3.155,2.102c0.134,0.114,0.298,0.17,0.461,0.17c0.201,0,0.401-0.085,0.542-0.25   c0.255-0.299,0.219-0.749-0.08-1.003c-1.048-0.892-2.203-1.661-3.433-2.287c-0.351-0.179-0.778-0.039-0.957,0.312   C966.885,585.871,967.024,586.3,967.375,586.479z"/>
<path d="M977.184,588.666l-1.385,0.711c-0.35,0.18-0.487,0.608-0.308,0.958c0.126,0.246,0.375,0.387,0.634,0.387   c0.109,0,0.221-0.025,0.324-0.079l1.385-0.711c0.35-0.18,0.488-0.608,0.309-0.958C977.963,588.624,977.533,588.486,977.184,588.666   z"/>
<path d="M973.356,592.144c0.109,0,0.221-0.025,0.324-0.079l0.64-0.328c0.35-0.18,0.487-0.609,0.308-0.958s-0.608-0.488-0.958-0.308   l-0.64,0.328c-0.35,0.179-0.487,0.608-0.308,0.958C972.849,592.002,973.098,592.144,973.356,592.144z"/>
<path d="M971.007,591.837l-15.761,8.093c-0.35,0.18-0.488,0.608-0.308,0.959c0.126,0.245,0.375,0.387,0.634,0.387   c0.109,0,0.221-0.025,0.325-0.079l15.761-8.092c0.35-0.18,0.487-0.609,0.309-0.958   C971.786,591.795,971.356,591.658,971.007,591.837z"/>
<path d="M953.329,600.914l-7.774,3.991c-0.35,0.18-0.488,0.609-0.308,0.959c0.126,0.245,0.375,0.387,0.634,0.387   c0.109,0,0.221-0.025,0.325-0.079l7.774-3.991c0.35-0.18,0.488-0.608,0.308-0.959C954.107,600.872,953.678,600.734,953.329,600.914   z"/>
<path d="M944.276,606.362c-0.18-0.35-0.608-0.488-0.959-0.309l-2.236,1.148c-0.35,0.18-0.487,0.608-0.308,0.959   c0.126,0.245,0.375,0.387,0.634,0.387c0.109,0,0.22-0.025,0.324-0.079l2.237-1.147   C944.318,607.141,944.456,606.712,944.276,606.362z"/>
<path d="M938.635,613.707l-2.769,1.422c-0.35,0.18-0.488,0.608-0.308,0.958c0.126,0.246,0.375,0.388,0.634,0.388   c0.109,0,0.221-0.026,0.325-0.079l2.769-1.422c0.35-0.18,0.487-0.608,0.308-0.959C939.414,613.665,938.984,613.527,938.635,613.707   z"/>
<path d="M933.522,616.332l-7.561,3.882c-0.35,0.18-0.488,0.608-0.308,0.959c0.126,0.245,0.375,0.387,0.634,0.387   c0.109,0,0.221-0.025,0.325-0.079l7.561-3.882c0.35-0.18,0.488-0.608,0.308-0.959C934.301,616.29,933.872,616.152,933.522,616.332z   "/>
<path d="M994.02,586.782c0.109,0,0.221-0.025,0.324-0.079l2.023-1.039c0.35-0.18,0.488-0.608,0.309-0.958   c-0.18-0.35-0.609-0.488-0.959-0.308l-2.023,1.039c-0.35,0.18-0.487,0.609-0.308,0.958   C993.512,586.641,993.761,586.782,994.02,586.782z"/>
<path d="M991.351,587.44c-0.18-0.35-0.608-0.488-0.959-0.308l-0.958,0.492c-0.35,0.18-0.487,0.608-0.309,0.958   c0.127,0.246,0.376,0.387,0.635,0.387c0.109,0,0.22-0.025,0.324-0.079l0.959-0.492C991.392,588.219,991.53,587.79,991.351,587.44z"/>
<path d="M987.517,588.608l-4.473,2.297c-0.35,0.18-0.487,0.608-0.309,0.958c0.127,0.246,0.376,0.387,0.635,0.387   c0.109,0,0.22-0.025,0.324-0.079l4.473-2.296c0.35-0.18,0.488-0.609,0.309-0.958C988.296,588.567,987.866,588.429,987.517,588.608z   "/>
<path d="M975.116,592.374l-30.884,15.857c-0.35,0.18-0.488,0.608-0.308,0.958c0.126,0.246,0.375,0.387,0.634,0.387   c0.109,0,0.22-0.025,0.325-0.078l1.921-0.986c2.712,4.732,7.708,7.645,13.208,7.645c0,0,0,0,0.001,0   c2.428,0,4.762-0.566,6.938-1.683c3.615-1.856,6.292-5.011,7.536-8.88c1.172-3.644,0.94-7.51-0.64-10.967l1.92-0.986   c0.35-0.18,0.487-0.609,0.308-0.958C975.896,592.332,975.467,592.194,975.116,592.374z M973.131,605.157   c-1.127,3.508-3.554,6.366-6.831,8.05c-1.973,1.012-4.088,1.525-6.288,1.525c0,0,0,0-0.001,0c-4.964,0-9.476-2.615-11.941-6.871   l24.509-12.584C973.986,598.396,974.186,601.877,973.131,605.157z"/>
<path d="M926.346,608.004c1.979,0,3.59-1.611,3.59-3.591s-1.611-3.59-3.59-3.59c-1.98,0-3.59,1.61-3.59,3.59   S924.366,608.004,926.346,608.004z M926.346,602.247c1.195,0,2.167,0.972,2.167,2.166c0,1.195-0.972,2.167-2.167,2.167   s-2.167-0.972-2.167-2.167C924.18,603.219,925.151,602.247,926.346,602.247z"/>
<path d="M995.142,608.307c-2.456,0-4.454,1.998-4.454,4.454s1.998,4.454,4.454,4.454c2.455,0,4.453-1.998,4.453-4.454   S997.598,608.307,995.142,608.307z M995.142,615.791c-1.671,0-3.03-1.359-3.03-3.03s1.359-3.03,3.03-3.03s3.029,1.359,3.029,3.03   S996.812,615.791,995.142,615.791z"/>
</g>
<!-- <text x="910" y="665" fill="white" font-size="5px" font-weight="bold" font-family="'Helvetica Neue', Helvetica, Arial-Unicode, Arial, Sans-serif">Created by Giuditta Valentina Gentile</text>
<text x="910" y="670" fill="white" font-size="5px" font-weight="bold" font-family="'Helvetica Neue', Helvetica, Arial-Unicode, Arial, Sans-serif">from the Noun Project</text> -->
</svg>